<svg width="384" height="58" viewBox="0 0 384 58" fill="none" xmlns="http://www.w3.org/2000/svg">
<path d="M78.4081 24.6996H65.1006C64.6591 24.6996 64.3047 25.0566 64.3047 25.5077V55.6822C64.3047 56.1207 64.6591 56.4777 65.1006 56.4777H78.4516C88.9421 56.4777 95.7201 50.2386 95.7201 40.5667C95.7139 30.9262 88.9234 24.6996 78.4081 24.6996ZM78.4081 48.1025H73.8624V33.0873H78.4516C83.19 33.0873 86.0194 35.8811 86.0194 40.5667C86.0194 44.3065 83.4015 48.1025 78.4081 48.1025Z" fill="#FFFFFF"/>
<path d="M154.702 32.8994C151.027 32.8994 148.042 34.9353 146.711 36.9461C145.735 34.2587 143.521 32.8994 140.138 32.8994C136.395 32.8994 133.559 34.81 132.571 36.0879V34.2713C132.571 33.8265 132.216 33.4695 131.775 33.4695H124.853C124.412 33.4695 124.057 33.8265 124.057 34.2713V55.6822C124.057 56.1207 124.412 56.4778 124.853 56.4778H131.775C132.216 56.4778 132.571 56.1207 132.571 55.6822V42.2831V42.2769C133.074 41.6943 134.113 40.4728 136.022 40.4728C137.701 40.4728 138.627 41.3874 138.627 43.0474V55.6822C138.627 56.1207 138.988 56.4778 139.423 56.4778H146.344C146.786 56.4778 147.14 56.1207 147.14 55.6822V42.2831C147.638 41.6943 148.682 40.4728 150.635 40.4728C152.289 40.4728 153.241 41.4124 153.241 43.0474V55.6822C153.241 56.1207 153.595 56.4778 154.037 56.4778H160.958C161.393 56.4778 161.754 56.1207 161.754 55.6822V39.8088C161.754 35.3487 159.248 32.8994 154.702 32.8994Z" fill="#FFFFFF"/>
<path d="M172.941 33.4695H166.019C165.578 33.4695 165.224 33.8265 165.224 34.2713V55.6822C165.224 56.1207 165.578 56.4778 166.019 56.4778H172.941C173.382 56.4778 173.737 56.1207 173.737 55.6822V34.2713C173.737 33.8265 173.376 33.4695 172.941 33.4695Z" fill="#FFFFFF"/>
<path d="M169.688 22.1752C167.052 22.1752 164.906 24.3363 164.906 26.9861C164.906 29.6421 167.052 31.8032 169.688 31.8032C172.319 31.8032 174.464 29.6483 174.464 26.9861C174.464 24.3363 172.319 22.1752 169.688 22.1752Z" fill="#FFFFFF"/>
<path d="M193.704 32.8994C189.289 32.8994 186.888 34.8977 185.856 36.0879V34.2713C185.856 33.8265 185.496 33.4695 185.06 33.4695H178.139C177.704 33.4695 177.343 33.8265 177.343 34.2713V55.6822C177.343 56.1207 177.704 56.4778 178.139 56.4778H185.06C185.496 56.4778 185.856 56.1207 185.856 55.6822V42.2831C186.41 41.6505 187.442 40.4728 189.494 40.4728C191.695 40.4728 192.808 41.5816 192.808 43.7552V55.6822C192.808 56.1207 193.163 56.4778 193.604 56.4778H200.525C200.967 56.4778 201.321 56.1207 201.321 55.6822V40.1471C201.321 35.6055 198.48 32.8994 193.704 32.8994Z" fill="#FFFFFF"/>
<path d="M109.444 32.793C102.784 32.793 97.3867 38.2303 97.3867 44.9329C97.3867 51.6481 102.784 57.0854 109.444 57.0854C116.104 57.0854 121.502 51.6544 121.502 44.9329C121.502 38.2303 116.104 32.793 109.444 32.793ZM109.444 48.9107C107.168 48.9107 105.334 47.0565 105.334 44.7575C105.334 42.4711 107.175 40.6169 109.444 40.6169C111.72 40.6169 113.561 42.4711 113.561 44.7575C113.555 47.0565 111.714 48.9107 109.444 48.9107Z" fill="#FFFFFF"/>
<path d="M215.904 32.8306C209.25 32.8306 203.846 38.2679 203.846 44.9768C203.846 51.692 209.244 57.123 215.904 57.123C222.564 57.123 227.967 51.6857 227.967 44.9768C227.974 38.2679 222.57 32.8306 215.904 32.8306ZM215.904 48.9483C213.634 48.9483 211.793 47.0878 211.793 44.7951C211.793 42.5087 213.634 40.6545 215.904 40.6545C218.18 40.6545 220.02 42.5087 220.02 44.7951C220.02 47.0878 218.18 48.9483 215.904 48.9483Z" fill="#FFFFFF"/>
<path d="M234.459 25.9587C233.925 23.5658 231.338 21.8369 228.788 22.3631C226.214 22.9018 224.522 25.3135 225.026 27.744C225.436 29.7486 227.209 31.1455 229.267 31.2707C229.136 32.0914 228.415 32.8243 227.818 33.1625C227.42 33.388 227.656 33.8265 227.656 33.8265L228.185 34.6158C228.34 34.8789 228.571 35.0167 228.844 34.904C234.18 32.7115 235.044 28.0948 234.459 25.9587Z" fill="#FFFFFF"/>
<path d="M240.759 40.3163C240.74 39.4581 241.847 39.076 243.227 39.076C245.982 39.076 247.549 39.8652 249.309 41.0366C249.489 41.1619 249.713 41.1995 249.931 41.1494C250.142 41.0993 250.329 40.9615 250.434 40.7673L252.773 36.6705C252.984 36.2947 252.86 35.8123 252.486 35.5931C250.565 34.4405 247.754 32.9496 242.867 32.9496C235.821 32.9496 232.053 36.2884 232.681 41.093C233.788 49.5309 246.815 46.6431 246.616 49.5246C246.573 50.1886 245.416 50.6835 243.42 50.6835C240.839 50.6835 237.911 49.3805 236.064 48.2279C235.883 48.1152 235.653 48.0776 235.448 48.1339C235.237 48.1903 235.062 48.3219 234.957 48.5161L232.258 53.0451C232.053 53.4146 232.158 53.8719 232.507 54.11C235.1 55.8765 239.285 57.0604 242.916 57.0604C249.968 57.0604 254.035 54.0097 254.035 48.9984C254.041 39.7337 240.815 42.6027 240.759 40.3163Z" fill="#FFFFFF"/>
<path d="M308.086 55.6509C308.086 56.0957 308.44 56.4527 308.881 56.4527H327.101C327.568 56.4527 327.897 56.0957 327.897 55.6509V49.844C327.897 49.4055 327.543 49.0485 327.101 49.0485H319.397C319.397 49.0485 326.019 41.4375 327.201 40.0594C327.524 39.6835 327.947 39.2951 327.947 38.2991C327.947 38.0987 327.947 34.3151 327.947 34.3151C327.947 33.8704 327.593 33.5133 327.151 33.5133H308.881C308.446 33.5133 308.086 33.8704 308.086 34.3151V39.2074V40.122C308.086 40.5605 308.44 40.9176 308.881 40.9176H309.852H316.71C316.71 40.9176 308.707 50.1384 308.564 50.3013C308.241 50.6772 308.086 51.2033 308.086 51.7671V55.6509Z" fill="#FFFFFF"/>
<path d="M330.789 55.6509C330.789 56.0957 331.143 56.4527 331.585 56.4527H349.805C350.271 56.4527 350.601 56.0957 350.601 55.6509V49.844C350.601 49.4055 350.246 49.0485 349.805 49.0485H342.181C342.181 49.0485 348.717 41.4312 349.904 40.0594C350.234 39.6835 350.651 39.2951 350.651 38.2991C350.651 38.0987 350.651 34.3151 350.651 34.3151C350.651 33.8704 350.296 33.5133 349.855 33.5133H331.591C331.15 33.5133 330.795 33.8704 330.795 34.3151V39.2074V40.122C330.795 40.5605 331.15 40.9176 331.591 40.9176H332.561H339.42C339.42 40.9176 331.417 50.1384 331.28 50.3013C330.957 50.6772 330.801 51.2033 330.801 51.7671V55.6509H330.789Z" fill="#FFFFFF"/>
<path d="M365.052 49.3554C362.534 49.3554 360.501 47.3008 360.501 44.7575C360.501 42.2331 362.534 40.1784 365.052 40.1784C367.571 40.1784 369.604 42.2268 369.604 44.7575C369.611 47.3008 367.571 49.3554 365.052 49.3554ZM377.328 33.4507H370.406C369.971 33.4507 369.611 33.8077 369.611 34.2525V35.6056C367.745 33.8766 365.363 32.8368 362.764 32.8368C356.813 32.8368 351.994 38.2741 351.994 44.9768C351.994 51.6857 356.813 57.123 362.764 57.123C365.363 57.123 367.751 56.0831 369.611 54.3605V55.6509C369.611 56.0957 369.965 56.4527 370.406 56.4527H377.328C377.763 56.4527 378.124 56.0957 378.124 55.6509V34.2525C378.124 33.8077 377.763 33.4507 377.328 33.4507Z" fill="#FFFFFF"/>
<path d="M304.41 33.5071H297.502C297.066 33.5071 296.706 33.8641 296.706 34.3026V55.6509C296.706 56.0894 297.066 56.4465 297.502 56.4465H304.41C304.846 56.4465 305.2 56.0894 305.2 55.6509V34.3089C305.206 33.8704 304.852 33.5071 304.41 33.5071Z" fill="#FFFFFF"/>
<path d="M300.959 22.2504C298.335 22.2504 296.196 24.399 296.196 27.0487C296.196 29.6985 298.335 31.8471 300.959 31.8471C303.583 31.8471 305.722 29.6985 305.722 27.0487C305.722 24.399 303.583 22.2504 300.959 22.2504Z" fill="#FFFFFF"/>
<path d="M280.805 40.1346H279.064V32.9058H280.861C284.418 32.9058 285.432 34.666 285.432 36.2821C285.432 38.2742 284.549 40.1346 280.805 40.1346ZM289.716 27.1552C286.8 25.1194 283.803 24.6433 279.089 24.6433L270.246 24.6809C269.83 24.6809 269.494 25.0192 269.494 25.4389V55.7011C269.494 56.1208 269.83 56.4591 270.246 56.4591H277.441H278.305C278.722 56.4591 279.058 56.1208 279.058 55.7011L279.052 54.7803L279.058 48.0964C283.187 48.0964 287.378 48.0525 290.481 45.3464C292.645 43.4609 294.268 40.4228 294.268 36.3135C294.274 33.1187 292.664 29.2036 289.716 27.1552Z" fill="#FFFFFF"/>
<path d="M56.5447 16.7817L40.9116 1.03359C40.2462 0.363322 39.3694 0 38.4366 0C37.5039 0 36.6271 0.363322 35.9679 1.03359L22.8533 14.2447L1.02662 36.232C-0.33521 37.6038 -0.33521 39.8402 1.02662 41.212L16.666 56.9664C17.3251 57.6304 18.2019 58 19.1347 58C20.0674 58 20.9442 57.6304 21.6034 56.9664L41.1728 37.2531L56.5509 21.7617C57.9127 20.3899 57.9127 18.1598 56.5447 16.7817Z" fill="white"/>
<path d="M55.4435 17.9031L39.8042 2.14867C39.0517 1.39071 37.8267 1.39071 37.0743 2.14867L20.1602 19.1872L38.5294 37.6916L55.4373 20.6593C56.1959 19.8951 56.1959 18.661 55.4435 17.9031ZM41.6883 22.4571C40.8053 23.3466 39.6425 23.7914 38.4858 23.7914C37.3292 23.7914 36.1664 23.3466 35.2834 22.4571C34.4003 21.5676 33.9526 20.3962 33.9526 19.2311C33.9526 18.0659 34.4003 16.8945 35.2834 16.005C36.1664 15.1155 37.3292 14.6645 38.4858 14.6645C39.6425 14.6645 40.8053 15.1093 41.6883 16.005C42.5714 16.8945 43.0191 18.0659 43.0191 19.2311C43.0129 20.3962 42.5714 21.5676 41.6883 22.4571Z" fill="#E31837"/>
<path d="M2.1267 37.3471C1.37427 38.105 1.37427 39.3391 2.1267 40.097L17.766 55.8514C18.1454 56.2336 18.6366 56.4215 19.1341 56.4215C19.6253 56.4215 20.1228 56.2336 20.5021 55.8514L37.4038 38.8254L19.0284 20.321L2.1267 37.3471ZM15.6704 41.8823C14.7812 42.7656 13.6246 43.2166 12.4679 43.2166C11.3051 43.2166 10.1485 42.7719 9.26545 41.8823C8.38243 40.9928 7.94092 39.8214 7.94092 38.6563C7.94092 37.4911 8.38243 36.3197 9.26545 35.424C10.1485 34.5345 11.3113 34.0897 12.4679 34.0897C13.6246 34.0897 14.7874 34.5345 15.6704 35.424C16.5534 36.3197 16.9949 37.4849 16.9949 38.65C16.9949 39.8214 16.5534 40.9928 15.6704 41.8823ZM22.5604 35.6119C23.4434 34.7161 24.6063 34.2776 25.7629 34.2776C26.9195 34.2776 28.0824 34.7224 28.9654 35.6119C29.8546 36.5014 30.2962 37.6665 30.2962 38.8379C30.2962 40.0031 29.8546 41.1745 28.9654 42.064C28.0824 42.9472 26.9195 43.3983 25.7629 43.3983C24.6063 43.3983 23.4434 42.9535 22.5604 42.064C21.6774 41.1745 21.2359 40.0031 21.2359 38.8379C21.2297 37.6728 21.6712 36.5077 22.5604 35.6119Z" fill="#0078AE"/>
<path d="M28.3436 56.3212V53.8218H27.4481V53.2455H29.8795V53.8218H28.9903V56.3212H28.3436Z" fill="#FFFFFF"/>
<path d="M32.9514 56.3212V54.1037L32.0933 56.3212H31.8072L30.9491 54.1037V56.3212H30.3024V53.2455H31.2103L31.9503 55.1686L32.6902 53.2455H33.6043V56.3212H32.9514Z" fill="#FFFFFF"/>
<path d="M381.631 38.2239C380.319 38.2239 379.255 37.1528 379.255 35.831C379.255 34.503 380.319 33.4381 381.631 33.4381C382.949 33.4381 384 34.4968 384 35.831C384 37.1528 382.949 38.2239 381.631 38.2239ZM381.631 33.8077C380.511 33.8077 379.616 34.6972 379.616 35.8373C379.616 36.9523 380.511 37.8669 381.631 37.8669C382.75 37.8669 383.646 36.9523 383.646 35.8373C383.646 34.6972 382.75 33.8077 381.631 33.8077ZM382.278 37.2154L381.575 36.1317H381.102V37.2154H380.723V34.4717H381.83C382.29 34.4717 382.713 34.7974 382.713 35.3048C382.713 35.9125 382.178 36.1192 382.016 36.1192L382.744 37.2154H382.278ZM381.83 34.81H381.102V35.7809H381.83C382.066 35.7809 382.321 35.5867 382.321 35.3048C382.327 35.0042 382.066 34.81 381.83 34.81Z" fill="#FFFFFF"/>
</svg>
